<!--<svg width="25" height="21" viewBox="0 0 25 21" fill="none" xmlns="http://www.w3.org/2000/svg">
<path d="M22.4302 5.06025C22.446 5.28232 22.446 5.50444 22.446 5.72651C22.446 12.5 17.2906 20.3045 7.86802 20.3045C4.96509 20.3045 2.26841 19.4638 0 18.0044C0.412451 18.052 0.808984 18.0679 1.2373 18.0679C3.63257 18.0679 5.83755 17.2589 7.59834 15.8788C5.3458 15.8312 3.45811 14.356 2.80771 12.3255C3.125 12.373 3.44224 12.4048 3.77539 12.4048C4.2354 12.4048 4.69546 12.3413 5.12373 12.2303C2.77603 11.7544 1.01519 9.69224 1.01519 7.20176V7.13833C1.69727 7.51904 2.49048 7.75698 3.33115 7.78867C1.95107 6.8686 1.04692 5.29819 1.04692 3.52153C1.04692 2.56978 1.30068 1.69731 1.74487 0.935889C4.26709 4.04502 8.05835 6.07544 12.3096 6.29756C12.2303 5.91685 12.1827 5.52031 12.1827 5.12373C12.1827 2.3001 14.4669 0 17.3064 0C18.7816 0 20.1141 0.618652 21.05 1.61802C22.208 1.39595 23.3184 0.967627 24.302 0.380713C23.9212 1.57046 23.1122 2.56982 22.0494 3.2043C23.0805 3.09331 24.0799 2.80771 24.9999 2.41118C24.3021 3.42637 23.4295 4.33052 22.4302 5.06025Z" fill="#152056"/>
</svg>-->
<svg xmlns="http://www.w3.org/2000/svg" x="0px" y="0px" width="25" height="21" viewBox="0 0 50 50">
<path d="M42,3H8C5.2,3,3,5.2,3,8v34c0,2.8,2.2,5,5,5h34c2.8,0,5-2.2,5-5V8C47,5.2,44.8,3,42,3z M37,19h-2c-2.1,0-3,0.5-3,2v3h5 l-1,5h-4v16h-5V29h-4v-5h4v-3c0-4,2-7,6-7c2.9,0,4,1,4,1V19z"></path>
</svg>