<!--<svg width="14" height="25" viewBox="0 0 14 25" fill="none" xmlns="http://www.w3.org/2000/svg">
<path d="M12.5122 14.0625L13.2065 9.53809H8.86523V6.60205C8.86523 5.36426 9.47168 4.15771 11.416 4.15771H13.3896V0.305664C13.3896 0.305664 11.5986 0 9.88623 0C6.31104 0 3.97412 2.16699 3.97412 6.08984V9.53809H0V14.0625H3.97412V25H8.86523V14.0625H12.5122Z" fill="#152056"/>
</svg>-->

<svg xmlns="http://www.w3.org/2000/svg" x="0px" y="0px" width="12" height="25" viewBox="0 0 48 48">
<path fill="#4caf50" d="M45,16.2l-5,2.75l-5,4.75L35,40h7c1.657,0,3-1.343,3-3V16.2z"></path><path fill="#1e88e5" d="M3,16.2l3.614,1.71L13,23.7V40H6c-1.657,0-3-1.343-3-3V16.2z"></path><polygon fill="#e53935" points="35,11.2 24,19.45 13,11.2 12,17 13,23.7 24,31.95 35,23.7 36,17"></polygon><path fill="#c62828" d="M3,12.298V16.2l10,7.5V11.2L9.876,8.859C9.132,8.301,8.228,8,7.298,8h0C4.924,8,3,9.924,3,12.298z"></path><path fill="#fbc02d" d="M45,12.298V16.2l-10,7.5V11.2l3.124-2.341C38.868,8.301,39.772,8,40.702,8h0 C43.076,8,45,9.924,45,12.298z"></path>
</svg>
